<svg version="1.1" id="Layer_1" xmlns="http://www.w3.org/2000/svg" xmlns:xlink="http://www.w3.org/1999/xlink" x="0px" y="0px"
	  viewBox="0 0 32 32" enable-background="new 0 0 32 32" xml:space="preserve">

<path fill="#224466" d="M28.994,0h-9.018c-1.653,0-3.962,0.956-5.131,2.125L0.877,16.093c-1.169,1.169-1.169,3.082,0,4.251
	l10.778,10.778c1.169,1.169,3.082,1.169,4.251,0l13.968-13.968c1.169-1.169,2.125-3.479,2.125-5.131V3.005
	C31.999,1.352,30.646-0.001,28.994,0L28.994,0z M25,10c-1.657,0-3-1.343-3-3s1.343-3,3-3s3,1.343,3,3S26.657,10,25,10z"/>
</svg>
