<svg class="logo-svg" viewBox="0 0 494 332" version="1.1" xmlns="http://www.w3.org/2000/svg" xmlns:xlink="http://www.w3.org/1999/xlink" xmlns:sketch="http://www.bohemiancoding.com/sketch/ns">
    <!-- Generator: Sketch 3.0.3 (7891) - http://www.bohemiancoding.com/sketch -->
   
    <g id="Page-1" stroke="none" stroke-width="1" fill="none" fill-rule="evenodd" sketch:type="MSPage">
        <g id="bakingbrewlogo" sketch:type="MSLayerGroup" transform="translate(1.000000, 1.000000)">
            <circle id="Oval" fill="#F8981D" sketch:type="MSShapeGroup" cx="245.967" cy="153.967" r="153.967"></circle>
            <path d="M245.954,0 C160.92,0 91.986,68.933 91.986,153.967 C91.986,239.001 160.92,307.934 245.953,307.934 C330.987,307.934 399.92,239.001 399.92,153.967 C399.921,68.933 330.987,0 245.954,0 L245.954,0 Z M245.954,297.206 C166.845,297.206 102.714,233.076 102.714,153.967 C102.714,74.858 166.845,10.727 245.954,10.727 C325.063,10.727 389.194,74.857 389.194,153.967 C389.194,233.077 325.062,297.206 245.954,297.206 L245.954,297.206 Z" id="Shape" stroke="#3E2723" stroke-width="2" fill="#7E5823" sketch:type="MSShapeGroup"></path>
            <g id="Group" transform="translate(124.000000, 56.000000)" stroke="#3E2723" fill="#7E5823" sketch:type="MSShapeGroup">
                <path d="M43.025,20.814 C41.146,24.771 37.166,27.001 33.857,25.68 C30.572,24.374 29.338,19.68 31.394,15.338 C33.282,10.718 46.875,0.308 46.875,0.308 C46.875,0.308 44.583,16.875 43.025,20.814 L43.025,20.814 Z" id="Shape"></path>
                <path d="M44.745,42.875 C41.308,45.074 36.866,44.701 34.961,41.599 C32.997,38.49 34.561,33.835 38.221,31.618 C41.969,29.182 57.409,28.912 57.409,28.912 C57.409,28.912 48.024,40.448 44.745,42.875 L44.745,42.875 Z" id="Shape"></path>
                <path d="M40.075,63.491 C37.045,66.199 32.6,66.563 30.218,63.817 C27.776,61.077 28.545,56.225 31.836,53.472 C35.093,50.452 50.321,47.903 50.321,47.903 C50.321,47.903 42.896,60.555 40.075,63.491 L40.075,63.491 Z" id="Shape"></path>
                <path d="M38.895,84.535 C36.332,87.714 32.062,88.809 29.215,86.498 C26.396,84.198 26.29,79.29 29.085,76.028 C31.823,72.5 46.403,67.52 46.403,67.52 C46.403,67.52 41.189,81.147 38.895,84.535 L38.895,84.535 Z" id="Shape"></path>
                <path d="M14.032,33.261 C15.434,37.793 19.416,39.692 22.782,37.945 C26.102,36.171 27.751,31.551 26.549,27.178 C25.243,23.013 15.842,9.775 15.842,9.775 C15.842,9.775 12.293,28.766 14.032,33.261 L14.032,33.261 Z" id="Shape"></path>
                <path d="M8.208,58.998 C10.33,63.262 14.57,64.478 17.606,62.201 C20.596,59.902 21.458,55.074 19.605,50.943 C17.592,47.033 6.325,35.319 6.325,35.319 C6.325,35.319 5.724,54.84 8.208,58.998 L8.208,58.998 Z" id="Shape"></path>
                <path d="M6.721,85.405 C9.502,89.255 13.933,89.747 16.51,86.999 C19.12,84.236 19.112,79.333 16.608,75.564 C13.994,72.052 0.94,62.312 0.94,62.312 C0.94,62.312 3.581,81.741 6.721,85.405 L6.721,85.405 Z" id="Shape"></path>
                <path d="M41.187,105.567 C39.191,109.135 35.115,110.905 31.964,109.07 C28.798,107.251 27.907,102.422 30.13,98.741 C32.254,94.81 45.805,87.461 45.805,87.461 C45.805,87.461 42.915,101.83 41.187,105.567 L41.187,105.567 Z" id="Shape"></path>
                <path d="M9.579,111.618 C12.952,114.946 17.373,114.733 19.502,111.606 C21.617,108.466 20.825,103.627 17.738,100.33 C14.586,97.296 0.109,89.873 0.109,89.873 C0.109,89.873 5.912,108.529 9.579,111.618 L9.579,111.618 Z" id="Shape"></path>
                <path d="M48.095,167.2 C34.52,147.301 25.883,124.277 22.619,100.477 C19.34,76.66 22.299,52.066 30.787,29.609 C31.083,28.771 31.959,28.345 32.692,28.629 L32.692,28.629 C33.434,28.917 33.751,29.793 33.461,30.613 L33.461,30.613 C16.154,74.794 23.878,126.71 50.423,165.548 C50.917,166.247 50.819,167.171 50.199,167.655 L50.199,167.655 C49.571,168.14 48.612,167.932 48.095,167.2 L48.095,167.2 L48.095,167.2 Z" id="Shape"></path>
            </g>
            <g id="Group" transform="translate(309.000000, 56.000000)" stroke="#3E2723" fill="#7E5823" sketch:type="MSShapeGroup">
                <path d="M10.302,0.309 C10.302,0.309 23.897,10.72 25.784,15.339 C27.841,19.681 26.606,24.375 23.32,25.681 C20.012,27.002 16.032,24.771 14.153,20.815 C12.595,16.875 10.302,0.309 10.302,0.309 L10.302,0.309 Z" id="Shape"></path>
                <path d="M-0.23,28.911 C-0.23,28.911 15.21,29.182 18.958,31.617 C22.618,33.834 24.183,38.49 22.218,41.598 C20.313,44.701 15.87,45.073 12.434,42.874 C9.155,40.448 -0.23,28.911 -0.23,28.911 L-0.23,28.911 Z" id="Shape"></path>
                <path d="M6.857,47.903 C6.857,47.903 22.085,50.452 25.342,53.472 C28.632,56.225 29.401,61.077 26.959,63.817 C24.577,66.563 20.133,66.199 17.104,63.491 C14.282,60.555 6.857,47.903 6.857,47.903 L6.857,47.903 Z" id="Shape"></path>
                <path d="M10.775,67.52 C10.775,67.52 25.355,72.499 28.093,76.028 C30.888,79.291 30.782,84.198 27.963,86.498 C25.116,88.81 20.847,87.714 18.283,84.535 C15.989,81.147 10.775,67.52 10.775,67.52 L10.775,67.52 Z" id="Shape"></path>
                <path d="M41.336,9.775 C41.336,9.775 31.936,23.013 30.629,27.178 C29.427,31.551 31.076,36.17 34.397,37.945 C37.763,39.692 41.745,37.794 43.148,33.261 C44.886,28.766 41.336,9.775 41.336,9.775 L41.336,9.775 Z" id="Shape"></path>
                <path d="M50.854,35.318 C50.854,35.318 39.586,47.032 37.574,50.942 C35.72,55.073 36.583,59.901 39.572,62.2 C42.608,64.478 46.848,63.262 48.97,58.997 C51.455,54.84 50.854,35.318 50.854,35.318 L50.854,35.318 Z" id="Shape"></path>
                <path d="M56.239,62.311 C56.239,62.311 43.184,72.051 40.571,75.563 C38.067,79.333 38.058,84.235 40.668,86.998 C43.245,89.747 47.676,89.254 50.457,85.404 C53.598,81.741 56.239,62.311 56.239,62.311 L56.239,62.311 Z" id="Shape"></path>
                <path d="M11.375,87.461 C11.375,87.461 24.926,94.811 27.05,98.741 C29.272,102.422 28.381,107.251 25.215,109.07 C22.065,110.905 17.987,109.135 15.992,105.567 C14.264,101.83 11.375,87.461 11.375,87.461 L11.375,87.461 Z" id="Shape"></path>
                <path d="M57.07,89.873 C57.07,89.873 42.592,97.296 39.441,100.33 C36.354,103.628 35.561,108.467 37.676,111.606 C39.805,114.733 44.226,114.946 47.599,111.618 C51.267,108.529 57.07,89.873 57.07,89.873 L57.07,89.873 Z" id="Shape"></path>
                <path d="M9.085,167.2 C8.566,167.931 7.607,168.139 6.979,167.655 L6.979,167.655 C6.36,167.171 6.261,166.247 6.756,165.548 C33.301,126.71 41.025,74.795 23.718,30.613 L23.718,30.613 C23.427,29.793 23.745,28.917 24.487,28.629 L24.487,28.629 C25.22,28.346 26.096,28.772 26.392,29.609 C34.879,52.066 37.84,76.659 34.56,100.477 C31.296,124.277 22.658,147.301 9.085,167.2 L9.085,167.2 L9.085,167.2 Z" id="Shape"></path>
            </g>
            <g id="bread" transform="translate(193.000000, 176.000000)" stroke="#3E2723" fill="#7E5823" sketch:type="MSShapeGroup">
                <path d="M66.341,1.802 C73.283,9.168 76.623,16.063 71.539,10.302 C66.12,4.157 59.711,1.548 55.601,0.449 C53.886,0.343 52.141,0.283 50.374,0.283 C50.182,0.283 49.993,0.288 49.801,0.288 C57.715,8.169 61.9,16.457 56.469,10.302 C51.489,4.657 45.673,1.994 41.574,0.747 C39.657,0.946 37.774,1.207 35.939,1.523 C43.057,8.994 46.547,16.135 41.399,10.301 C38.067,6.526 34.361,4.083 31.045,2.508 C12.545,6.793 -0.481,16.286 -0.481,22.019 C-0.481,29.594 22.288,28.942 50.374,28.942 C78.462,28.942 101.23,29.594 101.23,22.019 C101.231,15.945 86.606,5.649 66.341,1.802 L66.341,1.802 Z" id="Shape"></path>
            </g>
            <g id="Group" transform="translate(0.000000, 214.000000)" stroke="#3E2722" fill="#7E5823" sketch:type="MSShapeGroup">
                <path d="M100.115,18.697 C104.016,39.98 106.777,55.06 110.591,75.834 C204.991,52.679 287.543,52.679 381.935,75.84 C385.622,55.713 388.484,40.146 392.397,18.697 C291.854,-5.806 200.663,-5.812 100.115,18.697 L100.115,18.697 Z" id="Shape"></path>
                <path d="M109.438,77.629 L101.423,33.905 C85.665,37.176 73.156,40.556 53.947,46.46 C32.015,53.202 21.209,57.114 0.251,65.981 C14.189,66.547 20.972,67.048 34.117,68.535 C47.209,70.019 53.555,70.973 65.78,73.301 C58.342,81.721 54.93,85.978 48.759,94.505 C42.555,103.065 39.78,107.366 34.845,115.935 C51.645,108.838 60.316,105.695 77.907,100.284 C99.332,93.691 110.326,91.046 132.487,87.053 C131.526,81.831 130.687,77.248 129.897,72.947 C123.368,74.344 116.8,75.819 110.154,77.454 L109.438,77.629 L109.438,77.629 Z" id="Shape"></path>
                <path d="M492.646,65.992 C471.68,57.126 460.89,53.212 438.954,46.47 C419.595,40.52 407.047,37.141 391.108,33.837 C389.368,43.361 387.772,52.097 386.099,61.185 L383.081,77.635 L382.369,77.462 C375.848,75.857 369.392,74.395 362.988,73.015 C362.196,77.301 361.359,81.86 360.412,87.051 C382.563,91.044 393.558,93.7 414.991,100.294 C432.571,105.693 441.249,108.828 458.044,115.934 C453.118,107.366 450.325,103.064 444.126,94.504 C437.951,85.977 434.567,81.72 427.105,73.295 C439.339,70.973 445.689,70.019 458.777,68.534 C471.928,67.063 478.709,66.547 492.646,65.992 L492.646,65.992 Z" id="Shape"></path>
            </g>
            <g id="Group" transform="translate(120.000000, 221.000000)" stroke="#3E2722" fill="#F8971F" sketch:type="MSShapeGroup">
                <path d="M43.21,19.443 C43.64,22.416 41.674,25.763 37.083,26.489 C25.964,28.368 14.958,30.462 3.925,32.79 C3.596,31.311 3.432,30.574 3.104,29.096 C6.109,28.427 7.613,28.103 10.625,27.477 C9.604,22.562 9.093,20.107 8.072,15.192 C4.991,15.833 3.451,16.165 0.377,16.849 C0.048,15.37 -0.116,14.632 -0.445,13.154 C9.729,10.887 19.968,8.908 30.253,7.211 C32.953,6.766 34.672,7.541 35.598,8.23 C36.738,9.078 37.511,10.435 37.741,11.94 C37.853,12.672 37.57,13.981 37.635,14.078 C37.841,14.387 40.246,14.808 40.935,15.331 C42.149,16.251 42.969,17.774 43.21,19.443 L43.21,19.443 Z M31.21,10.889 C23.513,12.154 19.669,12.854 12.009,14.389 C12.313,15.907 12.466,16.665 12.769,18.183 C20.31,16.672 24.091,15.984 31.667,14.737 C33.478,14.397 34.007,13.354 33.877,12.542 C33.669,11.24 32.799,10.711 31.21,10.889 L31.21,10.889 Z M39.357,20.014 C39.091,18.265 37.862,17.534 35.719,17.872 C26.809,19.28 22.365,20.076 13.504,21.851 C13.892,23.788 14.086,24.756 14.473,26.693 C23.321,24.921 27.76,24.126 36.657,22.722 C38.9,22.328 39.512,21.031 39.357,20.014 L39.357,20.014 Z" id="Shape"></path>
                <path d="M83.183,17.743 C86.051,17.539 87.485,17.448 90.355,17.282 C90.435,18.662 90.476,19.353 90.556,20.734 C83.517,21.141 80,21.398 72.974,22.033 C72.849,20.656 72.786,19.968 72.662,18.591 C75.041,18.376 76.23,18.277 78.611,18.087 C77.231,16.645 76.539,15.927 75.141,14.493 C68.98,15.018 65.902,15.322 59.754,16.02 C58.697,17.68 58.172,18.512 57.133,20.177 C59.49,19.896 60.671,19.761 63.03,19.505 C63.179,20.88 63.254,21.567 63.403,22.943 C56.403,23.701 52.906,24.136 45.927,25.123 C45.734,23.754 45.636,23.067 45.443,21.698 C48.279,21.298 49.698,21.107 52.538,20.744 C56.127,14.959 57.976,12.08 61.779,6.355 C58.609,6.698 57.024,6.881 53.858,7.269 C53.686,5.864 53.599,5.163 53.427,3.757 C59.249,3.044 62.164,2.725 67.999,2.164 C74.235,8.313 77.272,11.43 83.183,17.743 L83.183,17.743 Z M61.98,12.583 C66.098,12.135 68.159,11.932 72.283,11.561 C69.987,9.239 68.829,8.085 66.487,5.788 C64.661,8.499 63.758,9.856 61.98,12.583 L61.98,12.583 Z" id="Shape"></path>
                <path d="M133.671,13.578 C133.639,15.058 133.012,16.524 131.905,17.616 C131.009,18.501 129.321,19.625 126.396,19.806 C126.129,19.804 125.995,19.802 125.728,19.8 C122.096,19.775 119.704,17.525 117.508,15.361 C116.872,14.734 116.191,14.044 115.466,13.445 C112.86,11.291 111.532,10.997 111.277,10.96 C108.435,12.364 107.022,13.075 104.215,14.516 C104.242,15.371 104.257,15.798 104.284,16.654 C107.089,16.563 108.492,16.529 111.298,16.474 C111.325,17.856 111.339,18.547 111.366,19.93 C104.37,20.065 100.872,20.19 93.882,20.551 C93.811,19.17 93.774,18.48 93.703,17.099 C96.507,16.954 97.909,16.889 100.714,16.781 C100.51,11.518 100.408,8.886 100.205,3.623 C97.332,3.734 95.897,3.803 93.025,3.951 C92.953,2.554 92.916,1.853 92.843,0.456 C100.075,0.083 103.694,-0.046 110.931,-0.187 C110.958,1.212 110.973,1.911 111,3.31 C108.144,3.366 106.716,3.402 103.86,3.494 C103.953,6.373 103.999,7.813 104.091,10.692 C107.938,8.741 109.879,7.779 113.792,5.895 C116.637,4.8 118.066,4.265 120.938,3.207 C117.926,3.212 116.419,3.224 113.408,3.269 C113.387,1.87 113.376,1.171 113.355,-0.228 C120.853,-0.341 124.602,-0.335 132.099,-0.199 C132.074,1.2 132.063,1.899 132.037,3.298 C130.299,3.267 129.431,3.254 127.692,3.236 C122.677,5.488 120.194,6.644 115.282,9.007 C116.011,9.492 116.869,10.062 117.766,10.832 C118.573,11.525 119.328,12.222 120.022,12.878 C122.396,15.124 123.822,16.502 126.168,16.349 C129.897,16.105 130.112,13.967 130.119,13.515 C131.542,13.535 132.252,13.548 133.671,13.578 L133.671,13.578 Z M111.489,10.954 L111.489,10.872 C111.422,10.906 111.387,10.924 111.32,10.958 C111.387,10.957 111.421,10.955 111.489,10.954 L111.489,10.954 Z" id="Shape"></path>
                <path d="M157.449,0.832 C157.354,2.327 157.307,3.076 157.213,4.571 C154.104,4.374 152.549,4.285 149.438,4.132 C149.189,9.179 149.065,11.701 148.817,16.748 C151.858,16.898 153.378,16.983 156.417,17.176 C156.322,18.671 156.275,19.419 156.181,20.914 C148.577,20.433 144.77,20.258 137.158,20.043 C137.2,18.546 137.222,17.798 137.264,16.301 C140.324,16.387 141.853,16.442 144.911,16.571 C145.124,11.523 145.227,8.998 145.44,3.949 C142.311,3.817 140.748,3.761 137.618,3.674 C137.66,2.177 137.681,1.429 137.723,-0.069 C145.617,0.152 149.564,0.333 157.449,0.832 L157.449,0.832 Z" id="Shape"></path>
                <path d="M208.975,6.528 C208.744,8.007 208.628,8.749 208.397,10.228 C205.294,9.742 203.741,9.51 200.633,9.068 C199.71,15.553 199.248,18.795 198.326,25.281 C196.536,25.026 195.64,24.903 193.849,24.664 C186.952,18.352 179.882,12.226 172.65,6.3 C172.211,11.119 171.99,13.528 171.55,18.347 C174.601,18.625 176.125,18.774 179.173,19.095 C179.016,20.584 178.939,21.33 178.781,22.82 C171.181,22.019 167.376,21.686 159.759,21.153 C159.863,19.659 159.913,18.911 160.018,17.417 C163.073,17.631 164.602,17.749 167.654,18.006 C168.076,12.987 168.289,10.478 168.711,5.459 C165.589,5.196 164.023,5.075 160.899,4.856 C161.003,3.362 161.053,2.616 161.158,1.122 C166.172,1.456 168.68,1.652 173.688,2.099 C180.971,8.04 188.096,14.175 195.043,20.506 C195.69,15.711 196.016,13.314 196.663,8.519 C193.536,8.097 191.973,7.898 188.842,7.52 C189.022,6.033 189.11,5.29 189.289,3.802 C197.177,4.753 201.115,5.298 208.975,6.528 L208.975,6.528 Z" id="Shape"></path>
                <path d="M241.419,25.525 C240.339,25.285 239.797,25.166 238.716,24.93 C238.31,26.4 237.298,27.608 235.862,28.522 C233.064,30.302 228.562,30.772 223.829,29.866 C223.78,29.856 223.754,29.853 223.705,29.844 C217.859,28.727 209.136,24.721 210.374,17.086 C211.5,10.142 219.643,7.751 226.825,9.113 C230.972,9.899 235.162,11.848 237.38,14.966 C237.605,13.904 237.72,13.372 237.944,12.309 C239.305,12.596 239.986,12.742 241.346,13.038 C240.709,15.966 240.39,17.427 239.754,20.354 C239.737,20.35 239.729,20.348 239.712,20.344 C239.703,20.385 239.703,20.387 239.703,20.387 C238.361,20.095 237.69,19.951 236.347,19.668 C236.398,15.684 230.939,13.416 226.306,12.537 C221.036,11.537 215.457,12.884 214.499,17.769 C213.51,22.816 220.155,25.729 224.338,26.529 C228.273,27.281 231.97,27.075 234.018,25.779 C234.716,25.337 235.134,24.794 235.345,24.207 C230.998,23.291 228.821,22.857 224.461,22.03 C224.691,20.817 224.807,20.21 225.037,18.997 C231.874,20.294 235.287,20.998 242.091,22.512 C241.822,23.717 241.688,24.32 241.419,25.525 L241.419,25.525 Z" id="Shape"></path>
            </g>
            <g id="Group" transform="translate(139.000000, 245.000000)" stroke="#3E2722" fill="#F8971F" sketch:type="MSShapeGroup">
                <path d="M43.661,18.293 C44.052,21.27 42.042,24.588 37.448,25.264 C26.314,27.043 15.323,29.072 4.286,31.38 C3.957,29.902 3.792,29.161 3.464,27.684 C6.471,27.015 7.978,26.694 10.993,26.076 C9.985,21.16 9.48,18.701 8.471,13.785 C5.375,14.42 3.829,14.754 0.741,15.44 C0.412,13.962 0.248,13.22 -0.08,11.743 C10.15,9.467 20.455,7.531 30.81,5.923 C33.528,5.502 35.247,6.294 36.169,6.992 C37.303,7.851 38.062,9.218 38.274,10.725 C38.377,11.458 38.079,12.764 38.142,12.862 C38.345,13.173 40.751,13.621 41.434,14.151 C42.64,15.087 43.441,16.621 43.661,18.293 L43.661,18.293 Z M31.732,9.609 C23.991,10.802 20.128,11.479 12.429,12.991 C12.727,14.509 12.877,15.268 13.175,16.786 C20.744,15.3 24.541,14.635 32.152,13.458 C33.972,13.135 34.511,12.1 34.39,11.286 C34.196,9.983 33.33,9.446 31.732,9.609 L31.732,9.609 Z M39.799,18.816 C39.554,17.065 38.33,16.32 36.18,16.636 C27.241,17.95 22.782,18.713 13.897,20.458 C14.277,22.396 14.468,23.364 14.848,25.302 C23.706,23.563 28.151,22.8 37.065,21.493 C39.312,21.123 39.941,19.836 39.799,18.816 L39.799,18.816 Z" id="Shape"></path>
                <path d="M93.322,18.221 C92.457,19.148 90.674,20.473 87.917,20.692 C87.678,20.711 87.456,20.708 87.248,20.715 C85.664,20.775 84.116,20.397 82.685,19.593 C81.314,18.823 80.12,17.784 78.877,16.699 C78.212,16.118 77.54,15.497 76.83,14.963 C73.99,12.824 72.738,12.752 72.738,12.752 C72.738,12.752 72.826,12.786 72.951,12.736 C68.555,13.033 66.357,13.209 61.968,13.609 C62.147,15.576 62.237,16.557 62.416,18.524 C65.485,18.244 67.02,18.117 70.093,17.888 C70.205,19.397 70.261,20.154 70.374,21.662 C62.73,22.232 58.913,22.597 51.291,23.483 C51.116,21.98 51.03,21.226 50.855,19.723 C53.918,19.367 55.45,19.202 58.517,18.896 C58.018,13.886 57.77,11.378 57.271,6.369 C54.121,6.682 52.546,6.854 49.4,7.221 C49.225,5.717 49.137,4.964 48.962,3.46 C59.365,2.253 69.808,1.383 80.267,0.848 C83.007,0.709 84.669,1.672 85.517,2.461 C86.555,3.427 87.167,4.867 87.225,6.429 C87.323,9.102 85.255,11.924 81.185,12.251 C81.134,12.254 81.109,12.256 81.058,12.259 C81.016,12.261 80.931,12.267 80.846,12.271 C80.388,12.294 80.158,12.305 79.7,12.33 C80.323,12.832 80.903,13.385 81.479,13.887 C83.85,15.952 85.308,17.161 87.484,16.92 C90.916,16.54 91.036,14.579 91.025,14.209 C92.581,14.163 93.359,14.144 94.916,14.111 C94.946,15.593 94.344,17.126 93.322,18.221 L93.322,18.221 Z M61.272,5.989 C61.413,7.529 61.482,8.301 61.623,9.842 C69.294,9.143 73.137,8.87 80.825,8.483 C82.663,8.348 83.306,7.376 83.271,6.594 C83.212,5.28 82.405,4.613 80.804,4.611 C72.984,5.002 69.075,5.278 61.272,5.989 L61.272,5.989 Z" id="Shape"></path>
                <path d="M140.565,13.601 C140.319,16.833 140.196,18.45 139.95,21.681 C138.418,21.564 137.65,21.508 136.117,21.404 C123.793,20.569 111.436,20.226 99.085,20.379 C99.066,18.865 99.056,18.108 99.037,16.595 C102.099,16.557 103.631,16.551 106.694,16.564 C106.715,11.545 106.725,9.035 106.747,4.016 C103.602,4.003 102.029,4.009 98.885,4.047 C98.866,2.533 98.858,1.779 98.84,0.266 C113.061,0.259 127.157,0.706 141.349,1.617 C141.348,1.634 141.349,1.64 141.348,1.657 C141.366,1.658 141.373,1.661 141.391,1.662 C141.144,4.893 141.019,6.508 140.773,9.74 C139.218,9.622 138.443,9.566 136.887,9.461 C137.005,7.721 137.065,6.851 137.183,5.11 C126.644,4.396 121.365,4.185 110.808,4.051 C110.788,5.598 110.778,6.37 110.758,7.917 C116.07,7.984 118.728,8.056 124.037,8.271 C124.072,7.4 124.092,6.962 124.127,6.091 C125.71,6.155 126.501,6.192 128.083,6.269 C127.924,9.507 127.845,11.127 127.687,14.366 C126.131,14.29 125.353,14.254 123.797,14.19 C123.832,13.319 123.85,12.882 123.885,12.011 C118.617,11.797 115.981,11.728 110.71,11.661 C110.685,13.636 110.674,14.622 110.649,16.597 C120.946,16.727 126.094,16.933 136.375,17.63 C136.492,15.906 136.552,15.046 136.669,13.322 C138.228,13.427 139.007,13.481 140.565,13.601 L140.565,13.601 Z" id="Shape"></path>
                <path d="M209.609,11.742 C209.284,13.204 209.12,13.935 208.795,15.397 C206.012,14.778 204.618,14.477 201.829,13.9 C195.129,19.202 191.863,21.915 185.509,27.439 C184.123,27.194 183.429,27.072 182.042,26.837 C179.621,22.673 178.381,20.599 175.832,16.466 C172.186,19.656 170.391,21.266 166.861,24.524 C165.468,24.336 164.772,24.246 163.379,24.068 C158.948,16.902 156.638,13.342 151.825,6.287 C148.881,5.996 147.407,5.863 144.46,5.618 C144.584,4.125 144.647,3.379 144.772,1.887 C151.998,2.488 155.61,2.857 162.815,3.729 C162.634,5.215 162.543,5.958 162.362,7.446 C160.128,7.175 159.01,7.046 156.774,6.801 C160.421,12.28 162.189,15.04 165.61,20.584 C168.841,17.607 170.481,16.132 173.809,13.211 C172.625,11.341 172.027,10.408 170.817,8.545 C171.024,7.062 171.128,6.32 171.335,4.837 C176.228,5.518 178.672,5.888 183.55,6.694 C183.306,8.172 183.181,8.911 182.937,10.388 C181.244,11.809 180.405,12.525 178.735,13.96 C181.06,17.741 182.199,19.639 184.419,23.446 C189.323,19.17 191.827,17.061 196.939,12.916 C194.622,12.462 193.462,12.243 191.141,11.818 C191.411,10.345 191.547,9.607 191.817,8.134 C198.952,9.443 202.513,10.164 209.609,11.742 L209.609,11.742 Z M176.631,11.22 C177.558,10.412 178.021,10.011 178.954,9.207 C177.394,8.963 176.614,8.843 175.053,8.611 C175.688,9.653 176.004,10.176 176.631,11.22 L176.631,11.22 Z" id="Shape"></path>
            </g>
            <g id="rolling_pin" transform="translate(185.000000, 58.000000)" stroke="#3E2723" fill="#7E5823" sketch:type="MSShapeGroup">
                <path d="M19.364,30.079 L17.59,28.304 C15.241,25.955 14.726,23.882 16.143,22.465 L21.77,16.838 C23.186,15.422 25.26,15.936 27.608,18.285 L29.383,20.06 L19.364,30.079 L19.364,30.079 Z" id="Shape"></path>
                <path d="M2.204,8.386 L2.121,8.303 C-0.222,5.947 -1.106,2.387 0.303,0.978 C1.693,-0.412 5.321,0.489 7.628,2.796 C9.878,5.05 11.413,7.1 12.897,9.082 C14.261,10.905 15.549,12.625 17.31,14.386 C18.613,15.689 20.063,16.9 21.745,18.086 L23.004,18.976 L18.28,23.7 L17.39,22.441 C16.202,20.757 14.991,19.305 13.684,17.999 C11.937,16.251 10.23,14.969 8.423,13.611 C6.457,12.134 4.426,10.608 2.204,8.386 L2.204,8.386 Z" id="Shape"></path>
                <path d="M88.127,103.343 L19.071,34.287 C16.722,31.938 16.208,29.865 17.625,28.448 L27.752,18.321 C29.21,16.863 31.174,17.35 33.591,19.767 L102.647,88.822 C105.064,91.239 105.549,93.203 104.092,94.66 L93.964,104.788 C92.548,106.205 90.475,105.691 88.127,103.343 L88.127,103.343 Z" id="Shape"></path>
                <path d="M94.109,104.824 L92.334,103.048 L102.353,93.029 L104.128,94.805 C106.477,97.153 106.989,99.226 105.574,100.642 L99.947,106.268 C98.529,107.687 96.458,107.172 94.109,104.824 L94.109,104.824 Z" id="Shape"></path>
                <path d="M114.028,120.211 C111.805,117.987 110.279,115.955 108.802,113.991 C107.445,112.184 106.162,110.477 104.415,108.73 C103.108,107.423 101.655,106.211 99.973,105.024 L98.714,104.133 L103.438,99.41 L104.328,100.67 C105.516,102.353 106.724,103.802 108.028,105.104 C109.788,106.865 111.508,108.153 113.332,109.517 C115.312,110.999 117.364,112.537 119.612,114.779 C121.925,117.093 122.825,120.719 121.435,122.11 C120.026,123.519 116.466,122.635 114.11,120.292 L114.028,120.211 L114.028,120.211 Z" id="Shape"></path>
            </g>
            <g id="rolling_pin_1_" transform="translate(185.000000, 58.000000)" stroke="#3E2723" fill="#7E5823" sketch:type="MSShapeGroup">
                <path d="M29.399,103.033 L27.624,104.808 C25.276,107.157 23.203,107.671 21.785,106.254 L16.159,100.627 C14.743,99.211 15.257,97.137 17.605,94.789 L19.38,93.014 L29.399,103.033 L29.399,103.033 Z" id="Shape"></path>
                <path d="M7.707,120.194 L7.624,120.277 C5.268,122.621 1.708,123.504 0.299,122.095 C-1.091,120.704 -0.19,117.076 2.117,114.769 C4.371,112.52 6.421,110.985 8.403,109.501 C10.226,108.137 11.946,106.849 13.707,105.088 C15.01,103.785 16.221,102.334 17.407,100.653 L18.297,99.393 L23.021,104.118 L21.762,105.008 C20.079,106.195 18.627,107.406 17.321,108.714 C15.573,110.461 14.291,112.167 12.933,113.975 C11.455,115.941 9.929,117.972 7.707,120.194 L7.707,120.194 Z" id="Shape"></path>
                <path d="M102.663,34.271 L33.607,103.327 C31.258,105.676 29.185,106.19 27.768,104.773 L17.64,94.645 C16.183,93.188 16.67,91.223 19.086,88.806 L88.141,19.75 C90.558,17.333 92.522,16.848 93.979,18.304 L104.107,28.432 C105.525,29.85 105.011,31.923 102.663,34.271 L102.663,34.271 Z" id="Shape"></path>
                <path d="M104.144,28.288 L102.369,30.064 L92.35,20.045 L94.125,18.269 C96.474,15.921 98.546,15.408 99.963,16.823 L105.589,22.45 C107.006,23.868 106.492,25.94 104.144,28.288 L104.144,28.288 Z" id="Shape"></path>
                <path d="M119.53,8.369 C117.307,10.592 115.274,12.118 113.31,13.595 C111.504,14.952 109.796,16.234 108.05,17.982 C106.743,19.289 105.53,20.741 104.343,22.424 L103.453,23.683 L98.729,18.96 L99.989,18.07 C101.672,16.882 103.121,15.674 104.423,14.369 C106.184,12.609 107.472,10.889 108.837,9.066 C110.319,7.086 111.856,5.033 114.099,2.786 C116.412,0.472 120.039,-0.427 121.429,0.962 C122.838,2.371 121.954,5.931 119.612,8.288 L119.53,8.369 L119.53,8.369 Z" id="Shape"></path>
            </g>
            <g id="Group" transform="translate(223.000000, 21.000000)" stroke="#3E2723" fill="#7E5823" sketch:type="MSShapeGroup">
                <path d="M3.958,19.843 C3.789,20.432 3.693,21.051 3.693,21.694 L3.693,48.109 C3.693,51.81 6.718,54.837 10.42,54.837 L28.292,54.837 C31.418,54.837 34.057,52.672 34.802,49.771 L37.864,49.771 C42.49,49.764 46.247,46.007 46.253,41.383 L46.253,28.421 C46.247,23.797 42.49,20.039 37.864,20.032 L35.053,20.032 C34.206,20.438 33.263,20.672 32.262,20.672 C31.046,20.672 29.913,20.33 28.941,19.747 C28.959,19.825 28.966,19.905 28.966,19.988 L28.966,48.586 C28.966,49.241 28.435,49.773 27.779,49.773 C27.125,49.773 26.592,49.242 26.592,48.586 L26.592,20.201 C25.847,20.501 25.035,20.673 24.181,20.673 C22.77,20.673 21.471,20.216 20.409,19.451 C20.492,19.614 20.544,19.796 20.544,19.99 L20.544,48.588 C20.544,49.243 20.014,49.775 19.358,49.775 C18.702,49.775 18.17,49.244 18.17,48.588 L18.17,20.154 C17.396,20.484 16.546,20.673 15.651,20.673 C14.308,20.673 13.067,20.256 12.032,19.553 C12.087,19.69 12.118,19.836 12.118,19.989 L12.118,48.587 C12.118,49.242 11.586,49.774 10.932,49.774 C10.277,49.774 9.744,49.243 9.744,48.587 L9.744,20.108 C8.942,20.466 8.058,20.672 7.121,20.672 C5.973,20.672 4.895,20.369 3.958,19.843 L3.958,19.843 Z M35.018,22.356 L37.863,22.356 C40.639,22.36 42.925,24.646 42.929,27.421 L42.929,40.382 C42.924,43.157 40.639,45.443 37.863,45.447 L35.018,45.447 L35.018,22.356 L35.018,22.356 Z" id="Shape"></path>
                <path d="M7.123,18.628 C2.922,18.628 -0.497,15.21 -0.497,11.007 C-0.497,6.805 2.921,3.386 7.124,3.386 C8.647,3.386 10.131,3.846 11.388,4.697 C12.279,4.092 13.28,3.685 14.341,3.501 C15.578,1.47 17.758,0.232 20.168,0.232 C21.498,0.232 22.792,0.622 23.896,1.343 C24.903,0.621 26.105,0.232 27.367,0.232 C29.581,0.232 31.604,1.475 32.631,3.396 C36.663,3.588 39.884,6.928 39.884,11.007 C39.884,15.209 36.465,18.628 32.263,18.628 C30.812,18.628 29.431,18.229 28.223,17.467 C25.742,19.03 22.366,18.977 19.918,17.317 C17.406,19.019 13.899,19.018 11.391,17.317 C10.132,18.167 8.648,18.628 7.123,18.628 L7.123,18.628 L7.123,18.628 Z" id="Shape"></path>
            </g>
        </g>
    </g>
</svg>